<svg width="40" height="46" viewBox="0 0 40 46" fill="none" xmlns="http://www.w3.org/2000/svg">
<path id="Vector" d="M12.3533 9.9349L8.00834 7.40958L19.8269 0.5L31.6803 7.40958L27.3351 9.9349L19.8269 5.58573L12.3533 9.9349ZM34.7739 14.2841V19.3698L39.119 16.8445V11.7588L34.7739 9.19836L30.4288 11.7237L34.7739 14.2841ZM15.4818 11.7588L19.8269 14.2841L24.172 11.7588L19.8269 9.19836L15.4818 11.7588ZM31.6803 16.1079L27.3351 13.5826L19.8269 17.9318L12.3533 13.5826L8.00834 16.1079V21.1937L15.4818 25.5428V34.2412L19.8269 36.7665L24.172 34.2412V25.5428L31.6803 21.1937V16.1079ZM34.7739 31.7158L27.3005 36.0651V41.1507L39.1538 34.2412V20.4571L34.7739 23.0175V31.7158ZM27.3005 32.4524L31.6455 29.9271V24.8062L27.3005 27.3316V32.4524ZM15.4818 37.8889V42.9746L19.8269 45.5L24.172 42.9746V37.8889L19.8269 40.4142L15.4818 37.8889ZM0.5 16.8445L4.84508 19.3698V14.2841L9.19019 11.7588L4.87984 9.19836L0.534761 11.7237V16.8445H0.5ZM4.87984 23.0175L0.534761 20.4922V34.2763L12.3881 41.1858V36.1001L4.87984 31.7158V23.0175ZM12.3533 27.3667L8.00834 24.8414V29.9271L12.3533 32.4524V27.3667Z" fill="#F1BA0D"/>
</svg>
