<svg width="22" height="24" viewBox="0 0 22 24" fill="none" xmlns="http://www.w3.org/2000/svg">
<g id="Icon/copy">
<g id="Group">
<path id="Vector" d="M14.4375 4.8V15.6C14.4375 16.0774 14.2564 16.5352 13.9341 16.8728C13.6118 17.2104 13.1746 17.4 12.7188 17.4H5.84375C5.38791 17.4 4.95074 17.2104 4.62841 16.8728C4.30608 16.5352 4.125 16.0774 4.125 15.6V7.7178C4.12503 7.478 4.17081 7.24063 4.25965 7.01962C4.34849 6.79861 4.4786 6.59842 4.64234 6.4308L7.49117 3.513C7.81227 3.18419 8.24349 3.00006 8.69258 3H12.7188C13.1746 3 13.6118 3.18964 13.9341 3.52721C14.2564 3.86477 14.4375 4.32261 14.4375 4.8Z" stroke="#868686" stroke-width="2" stroke-linecap="round" stroke-linejoin="round"/>
<path id="Vector_2" d="M7.5625 17.4V19.2C7.5625 19.6774 7.74358 20.1352 8.06591 20.4728C8.38824 20.8104 8.82541 21 9.28125 21H16.1562C16.6121 21 17.0493 20.8104 17.3716 20.4728C17.6939 20.1352 17.875 19.6774 17.875 19.2V9.3C17.875 8.82261 17.6939 8.36477 17.3716 8.02721C17.0493 7.68964 16.6121 7.5 16.1562 7.5H14.4375" stroke="#868686" stroke-width="2" stroke-linecap="round" stroke-linejoin="round"/>
</g>
</g>
</svg>
