<svg width="40" height="26" viewBox="0 0 40 26" fill="none" xmlns="http://www.w3.org/2000/svg">
<path id="Vector" d="M34.4448 3.44262C31.8027 1.39459 28.632 0.37063 25.2852 0.199951L24.7567 0.711988C27.7512 1.39459 30.3935 2.75991 32.8595 4.63726C29.865 3.10126 26.5182 2.0773 22.9953 1.73595C21.9384 1.56527 21.0576 1.56527 20.0008 1.56527C18.9439 1.56527 18.0631 1.56527 17.0063 1.73595C13.4833 2.0773 10.1365 3.10126 7.14206 4.63726C9.60806 2.75991 12.2503 1.39459 15.2448 0.711988L14.7163 0.199951C11.3695 0.37063 8.1989 1.39459 5.55674 3.44262C2.56225 8.904 0.976929 15.048 0.800781 21.3625C3.44294 24.0933 7.14206 25.8 11.0173 25.8C11.0173 25.8 12.2503 24.4346 13.131 23.2399C10.8412 22.728 8.72738 21.5332 7.31822 19.656C8.55122 20.3386 9.78422 21.0213 11.0173 21.5332C12.6027 22.2159 14.188 22.5573 15.7733 22.8986C17.1825 23.0692 18.5916 23.2399 20.0008 23.2399C21.4099 23.2399 22.8191 23.0692 24.2283 22.8986C25.8136 22.5573 27.3989 22.2159 28.9842 21.5332C30.2173 21.0213 31.4503 20.3386 32.6833 19.656C31.2742 21.5332 29.1604 22.728 26.8705 23.2399C27.7512 24.4346 28.9842 25.8 28.9842 25.8C32.8595 25.8 36.5586 24.0933 39.2008 21.3625C39.0246 15.048 37.4393 8.904 34.4448 3.44262ZM14.188 18.2905C12.4265 18.2905 10.8412 16.7545 10.8412 14.8773C10.8412 13 12.4265 11.464 14.188 11.464C15.9495 11.464 17.5348 13 17.5348 14.8773C17.5348 16.7545 15.9495 18.2905 14.188 18.2905ZM25.8136 18.2905C24.0521 18.2905 22.4668 16.7545 22.4668 14.8773C22.4668 13 24.0521 11.464 25.8136 11.464C27.5751 11.464 29.1604 13 29.1604 14.8773C29.1604 16.7545 27.5751 18.2905 25.8136 18.2905Z" fill="white"/>
</svg>
