<svg width="37" height="28" viewBox="0 0 37 28" fill="none" xmlns="http://www.w3.org/2000/svg">
<path id="email" d="M4.26602 28C3.27602 28 2.42822 27.657 1.72262 26.971C1.01702 26.285 0.664819 25.4613 0.666019 24.5V3.5C0.666019 2.5375 1.01882 1.71325 1.72442 1.02725C2.43002 0.341253 3.27722 -0.0011637 4.26602 2.97114e-06H33.066C34.056 2.97114e-06 34.9038 0.343003 35.6094 1.029C36.315 1.715 36.6672 2.53867 36.666 3.5V24.5C36.666 25.4625 36.3132 26.2867 35.6076 26.9727C34.902 27.6587 34.0548 28.0012 33.066 28H4.26602ZM18.666 15.75L33.066 7V3.5L18.666 12.25L4.26602 3.5V7L18.666 15.75Z" fill="#3C63EC"/>
</svg>
