<svg width="40" height="40" viewBox="0 0 40 40" fill="none" xmlns="http://www.w3.org/2000/svg">
<g clip-path="url(#clip0_842_247)">
<rect width="40" height="40" rx="20" fill="#FDFAFF"/>
<path fill-rule="evenodd" clip-rule="evenodd" d="M-13.3335 0H39.6665V40H-13.3335V0Z" fill="#F7FCFF"/>
<path fill-rule="evenodd" clip-rule="evenodd" d="M-13.3335 24.4449V27.7782H39.6665V24.4449H-13.3335Z" fill="#E31D1C"/>
<path fill-rule="evenodd" clip-rule="evenodd" d="M-13.3335 30.5553V33.8886H39.6665V30.5553H-13.3335Z" fill="#E31D1C"/>
<path fill-rule="evenodd" clip-rule="evenodd" d="M-13.3335 12.221V15.5543H39.6665V12.221H-13.3335Z" fill="#E31D1C"/>
<path fill-rule="evenodd" clip-rule="evenodd" d="M-13.3335 36.6666V39.9999H39.6665V36.6666H-13.3335Z" fill="#E31D1C"/>
<path fill-rule="evenodd" clip-rule="evenodd" d="M-13.3335 18.3334V21.6667H39.6665V18.3334H-13.3335Z" fill="#E31D1C"/>
<path fill-rule="evenodd" clip-rule="evenodd" d="M-13.3335 0V3.33333H39.6665V0H-13.3335Z" fill="#E31D1C"/>
<path fill-rule="evenodd" clip-rule="evenodd" d="M-13.3335 6.11218V9.44552H39.6665V6.11218H-13.3335Z" fill="#E31D1C"/>
<path d="M-13.3335 0H19.7915V21.6667H-13.3335V0Z" fill="#2E42A5"/>
<path fill-rule="evenodd" clip-rule="evenodd" d="M-10.4819 4.89859L-11.6841 5.74672L-11.2782 4.23737L-12.3461 3.28085H-10.9514L-10.4836 2.04907L-9.93508 3.28085H-8.74612L-9.68032 4.23737L-9.31866 5.74672L-10.4819 4.89859ZM-3.8569 4.89859L-5.05913 5.74672L-4.65325 4.23737L-5.72105 3.28085H-4.32636L-3.85859 2.04907L-3.31009 3.28085H-2.12113L-3.05532 4.23737L-2.69366 5.74672L-3.8569 4.89859ZM1.56586 5.74672L2.7681 4.89859L3.93133 5.74672L3.56961 4.23737L4.5039 3.28085H3.31488L2.76641 2.04907L2.29864 3.28085H0.903941L1.97174 4.23737L1.56586 5.74672ZM9.39314 4.89859L8.19087 5.74672L8.59682 4.23737L7.52887 3.28085H8.9236L9.39149 2.04907L9.93987 3.28085H11.1289L10.1946 4.23737L10.5563 5.74672L9.39314 4.89859ZM-11.6841 12.4134L-10.4819 11.5652L-9.31866 12.4134L-9.68032 10.904L-8.74612 9.94752H-9.93508L-10.4836 8.71573L-10.9514 9.94752H-12.3461L-11.2782 10.904L-11.6841 12.4134ZM-3.8569 11.5652L-5.05913 12.4134L-4.65325 10.904L-5.72105 9.94752H-4.32636L-3.85859 8.71573L-3.31009 9.94752H-2.12113L-3.05532 10.904L-2.69366 12.4134L-3.8569 11.5652ZM1.56586 12.4134L2.7681 11.5652L3.93133 12.4134L3.56961 10.904L4.5039 9.94752H3.31488L2.76641 8.71573L2.29864 9.94752H0.903941L1.97174 10.904L1.56586 12.4134ZM9.39314 11.5652L8.19087 12.4134L8.59682 10.904L7.52887 9.94752H8.9236L9.39149 8.71573L9.93987 9.94752H11.1289L10.1946 10.904L10.5563 12.4134L9.39314 11.5652ZM-11.6841 19.0801L-10.4819 18.2319L-9.31866 19.0801L-9.68032 17.5707L-8.74612 16.6142H-9.93508L-10.4836 15.3824L-10.9514 16.6142H-12.3461L-11.2782 17.5707L-11.6841 19.0801ZM-3.8569 18.2319L-5.05913 19.0801L-4.65325 17.5707L-5.72105 16.6142H-4.32636L-3.85859 15.3824L-3.31009 16.6142H-2.12113L-3.05532 17.5707L-2.69366 19.0801L-3.8569 18.2319ZM1.56586 19.0801L2.7681 18.2319L3.93133 19.0801L3.56961 17.5707L4.5039 16.6142H3.31488L2.76641 15.3824L2.29864 16.6142H0.903941L1.97174 17.5707L1.56586 19.0801ZM9.39314 18.2319L8.19087 19.0801L8.59682 17.5707L7.52887 16.6142H8.9236L9.39149 15.3824L9.93987 16.6142H11.1289L10.1946 17.5707L10.5563 19.0801L9.39314 18.2319ZM14.8159 5.74672L16.0181 4.89859L17.1813 5.74672L16.8196 4.23737L17.7539 3.28085H16.5649L16.0165 2.04907L15.5486 3.28085H14.1539L15.2218 4.23737L14.8159 5.74672ZM16.0181 11.5652L14.8159 12.4134L15.2218 10.904L14.1539 9.94752H15.5486L16.0165 8.71573L16.5649 9.94752H17.7539L16.8196 10.904L17.1813 12.4134L16.0181 11.5652ZM14.8159 19.0801L16.0181 18.2319L17.1813 19.0801L16.8196 17.5707L17.7539 16.6142H16.5649L16.0165 15.3824L15.5486 16.6142H14.1539L15.2218 17.5707L14.8159 19.0801ZM-7.16939 8.23192L-8.37163 9.08005L-7.96575 7.5707L-9.03355 6.61418H-7.63886L-7.17108 5.3824L-6.62258 6.61418H-5.43363L-6.36782 7.5707L-6.00616 9.08005L-7.16939 8.23192ZM-1.74664 9.08005L-0.544398 8.23192L0.618834 9.08005L0.257176 7.5707L1.19137 6.61418H0.00241184L-0.546088 5.3824L-1.01386 6.61418H-2.40856L-1.34076 7.5707L-1.74664 9.08005ZM6.08065 8.23192L4.87837 9.08005L5.28432 7.5707L4.21637 6.61418H5.6111L6.07899 5.3824L6.62737 6.61418H7.81639L6.8821 7.5707L7.24383 9.08005L6.08065 8.23192ZM-8.37163 15.7467L-7.16939 14.8986L-6.00616 15.7467L-6.36782 14.2374L-5.43363 13.2808H-6.62258L-7.17108 12.0491L-7.63886 13.2808H-9.03355L-7.96575 14.2374L-8.37163 15.7467ZM-0.544398 14.8986L-1.74664 15.7467L-1.34076 14.2374L-2.40856 13.2808H-1.01386L-0.546088 12.0491L0.00241184 13.2808H1.19137L0.257176 14.2374L0.618834 15.7467L-0.544398 14.8986ZM4.87837 15.7467L6.08065 14.8986L7.24383 15.7467L6.8821 14.2374L7.81639 13.2808H6.62737L6.07899 12.0491L5.6111 13.2808H4.21637L5.28432 14.2374L4.87837 15.7467ZM12.7056 8.23192L11.5034 9.08005L11.9093 7.5707L10.8414 6.61418H12.2361L12.704 5.3824L13.2524 6.61418H14.4414L13.5071 7.5707L13.8688 9.08005L12.7056 8.23192ZM11.5034 15.7467L12.7056 14.8986L13.8688 15.7467L13.5071 14.2374L14.4414 13.2808H13.2524L12.704 12.0491L12.2361 13.2808H10.8414L11.9093 14.2374L11.5034 15.7467Z" fill="#F7FCFF"/>
</g>
<defs>
<clipPath id="clip0_842_247">
<rect width="40" height="40" rx="20" fill="white"/>
</clipPath>
</defs>
</svg>
