<svg width="40" height="40" viewBox="0 0 40 40" fill="none" xmlns="http://www.w3.org/2000/svg">
<g clip-path="url(#clip0_842_293)">
<rect width="40" height="40" rx="20" fill="#FDFAFF"/>
<g clip-path="url(#clip1_842_293)">
<rect width="40" height="40" rx="20" fill="#FDFAFF"/>
<mask id="mask0_842_293" style="mask-type:luminance" maskUnits="userSpaceOnUse" x="-3" y="0" width="54" height="40">
<path d="M-2.66699 0H50.6663V40H-2.66699V0Z" fill="white"/>
</mask>
<g mask="url(#mask0_842_293)">
<path fill-rule="evenodd" clip-rule="evenodd" d="M-2.66699 0V40H50.6663V0H-2.66699Z" fill="#FFB400"/>
<mask id="mask1_842_293" style="mask-type:luminance" maskUnits="userSpaceOnUse" x="-3" y="0" width="54" height="40">
<path fill-rule="evenodd" clip-rule="evenodd" d="M-2.66699 0V40H50.6663V0H-2.66699Z" fill="white"/>
</mask>
<g mask="url(#mask1_842_293)">
<path fill-rule="evenodd" clip-rule="evenodd" d="M-2.66699 0V10H50.6663V0H-2.66699Z" fill="#C51918"/>
<path fill-rule="evenodd" clip-rule="evenodd" d="M-2.66699 30V40H50.6663V30H-2.66699Z" fill="#C51918"/>
<path d="M5.67975 17.12H7.54641V26.8267H5.67975V17.12Z" fill="#F1F9FF"/>
<path fill-rule="evenodd" clip-rule="evenodd" d="M8.29311 15.4402H4.93311V16.3736H5.49311V17.1202H7.73311V16.3736H8.29311V15.4402Z" fill="#C88A02"/>
<path fill-rule="evenodd" clip-rule="evenodd" d="M7.73311 27.3865H8.29311V28.3198H4.93311V27.3865H5.49311V26.6398H7.73311V27.3865Z" fill="#C88A02"/>
<path fill-rule="evenodd" clip-rule="evenodd" d="M6.61334 15.6268C7.01955 15.6268 7.06084 15.4738 7.3005 15.2454C7.48659 15.068 7.92 14.8479 7.92 14.6001C7.92 14.0331 7.33499 13.5734 6.61334 13.5734C5.89169 13.5734 5.30667 14.0331 5.30667 14.6001C5.30667 14.8762 5.60514 15.0608 5.8308 15.2454C6.06857 15.4398 6.2431 15.6268 6.61334 15.6268Z" fill="#AD1619"/>
<path fill-rule="evenodd" clip-rule="evenodd" d="M4.93311 28.3195H8.29311V29.8128C8.29311 29.8128 7.87311 29.6262 7.45311 29.6262C7.03311 29.6262 6.61311 29.8128 6.61311 29.8128C6.61311 29.8128 6.19311 29.6262 5.77311 29.6262C5.35311 29.6262 4.93311 29.8128 4.93311 29.8128V28.3195Z" fill="#005BBF"/>
<mask id="mask2_842_293" style="mask-type:luminance" maskUnits="userSpaceOnUse" x="4" y="28" width="5" height="2">
<path fill-rule="evenodd" clip-rule="evenodd" d="M4.93311 28.3195H8.29311V29.8128C8.29311 29.8128 7.87311 29.6262 7.45311 29.6262C7.03311 29.6262 6.61311 29.8128 6.61311 29.8128C6.61311 29.8128 6.19311 29.6262 5.77311 29.6262C5.35311 29.6262 4.93311 29.8128 4.93311 29.8128V28.3195Z" fill="white"/>
</mask>
<g mask="url(#mask2_842_293)">
<path d="M4.9026 29.5192L4.82925 29.3403C5.13189 29.2057 5.4356 29.1382 5.73977 29.1382C5.93629 29.1382 6.0389 29.1655 6.21335 29.2432C6.36659 29.3113 6.44602 29.3325 6.6136 29.3325C6.78119 29.3325 6.86062 29.3113 7.01385 29.2432C7.1883 29.1655 7.29092 29.1382 7.48744 29.1382C7.7916 29.1382 8.09532 29.2057 8.39795 29.3403L8.3246 29.5192C8.04469 29.3947 7.76584 29.3325 7.48744 29.3325C7.31985 29.3325 7.24042 29.3538 7.08719 29.422C6.91274 29.4997 6.81012 29.527 6.6136 29.527C6.41709 29.527 6.31447 29.4997 6.14002 29.422C5.98679 29.3538 5.90735 29.3325 5.73977 29.3325C5.46137 29.3325 5.18252 29.3947 4.9026 29.5192Z" fill="#FDFAFF"/>
<path d="M4.90265 28.9595L4.8293 28.7806C5.13193 28.646 5.43565 28.5783 5.73982 28.5783C5.93633 28.5783 6.03895 28.6058 6.2134 28.6833C6.36663 28.7516 6.44607 28.7728 6.61365 28.7728C6.78123 28.7728 6.86067 28.7516 7.0139 28.6833C7.18835 28.6058 7.29097 28.5783 7.48748 28.5783C7.79165 28.5783 8.09537 28.646 8.398 28.7806L8.32465 28.9595C8.04473 28.8348 7.76588 28.7728 7.48748 28.7728C7.3199 28.7728 7.24047 28.794 7.08723 28.8621C6.91278 28.9398 6.81017 28.9673 6.61365 28.9673C6.41713 28.9673 6.31452 28.9398 6.14007 28.8621C5.98683 28.794 5.9074 28.7728 5.73982 28.7728C5.46142 28.7728 5.18257 28.8348 4.90265 28.9595Z" fill="#FDFAFF"/>
</g>
<path d="M23.9728 17.12H25.8395V26.8267H23.9728V17.12Z" fill="#F1F9FF"/>
<path fill-rule="evenodd" clip-rule="evenodd" d="M26.5862 15.4402H23.2262V16.3736H23.7862V17.1202H26.0262V16.3736H26.5862V15.4402Z" fill="#C88A02"/>
<path fill-rule="evenodd" clip-rule="evenodd" d="M26.0262 27.3865H26.5862V28.3198H23.2262V27.3865H23.7862V26.6398H26.0262V27.3865Z" fill="#C88A02"/>
<path fill-rule="evenodd" clip-rule="evenodd" d="M24.9063 15.6268C25.3125 15.6268 25.3538 15.4738 25.5935 15.2454C25.7797 15.068 26.213 14.8479 26.213 14.6001C26.213 14.0331 25.628 13.5734 24.9063 13.5734C24.1847 13.5734 23.5997 14.0331 23.5997 14.6001C23.5997 14.8762 23.8982 15.0608 24.1238 15.2454C24.3615 15.4398 24.5362 15.6268 24.9063 15.6268Z" fill="#AD1619"/>
<path fill-rule="evenodd" clip-rule="evenodd" d="M23.2262 28.3195H26.5862V29.8128C26.5862 29.8128 26.1662 29.6262 25.7462 29.6262C25.3262 29.6262 24.9062 29.8128 24.9062 29.8128C24.9062 29.8128 24.4862 29.6262 24.0662 29.6262C23.6462 29.6262 23.2262 29.8128 23.2262 29.8128V28.3195Z" fill="#005BBF"/>
<mask id="mask3_842_293" style="mask-type:luminance" maskUnits="userSpaceOnUse" x="23" y="28" width="4" height="2">
<path fill-rule="evenodd" clip-rule="evenodd" d="M23.2262 28.3195H26.5862V29.8128C26.5862 29.8128 26.1662 29.6262 25.7462 29.6262C25.3262 29.6262 24.9062 29.8128 24.9062 29.8128C24.9062 29.8128 24.4862 29.6262 24.0662 29.6262C23.6462 29.6262 23.2262 29.8128 23.2262 29.8128V28.3195Z" fill="white"/>
</mask>
<g mask="url(#mask3_842_293)">
<path d="M23.1957 29.5192L23.1224 29.3403C23.4249 29.2057 23.7287 29.1382 24.0329 29.1382C24.2294 29.1382 24.3319 29.1655 24.5064 29.2432C24.6597 29.3113 24.739 29.3325 24.9067 29.3325C25.0742 29.3325 25.1537 29.3113 25.3069 29.2432C25.4814 29.1655 25.584 29.1382 25.7805 29.1382C26.0847 29.1382 26.3884 29.2057 26.691 29.3403L26.6177 29.5192C26.3377 29.3947 26.0589 29.3325 25.7805 29.3325C25.6129 29.3325 25.5335 29.3538 25.3802 29.422C25.2057 29.4997 25.1032 29.527 24.9067 29.527C24.7102 29.527 24.6075 29.4997 24.433 29.422C24.2799 29.3538 24.2004 29.3325 24.0329 29.3325C23.7544 29.3325 23.4755 29.3947 23.1957 29.5192Z" fill="#FDFAFF"/>
<path d="M23.1957 28.9595L23.1224 28.7806C23.4249 28.646 23.7287 28.5783 24.0329 28.5783C24.2294 28.5783 24.3319 28.6058 24.5064 28.6833C24.6597 28.7516 24.7391 28.7728 24.9067 28.7728C25.0742 28.7728 25.1537 28.7516 25.3069 28.6833C25.4814 28.6058 25.5841 28.5783 25.7806 28.5783C26.0847 28.5783 26.3884 28.646 26.6911 28.7806L26.6177 28.9595C26.3377 28.8348 26.0589 28.7728 25.7806 28.7728C25.6129 28.7728 25.5336 28.794 25.3802 28.8621C25.2057 28.9398 25.1032 28.9673 24.9067 28.9673C24.7102 28.9673 24.6076 28.9398 24.4331 28.8621C24.2799 28.794 24.2004 28.7728 24.0329 28.7728C23.7544 28.7728 23.4756 28.8348 23.1957 28.9595Z" fill="#FDFAFF"/>
</g>
<path fill-rule="evenodd" clip-rule="evenodd" d="M5.64637 26.1331C5.98292 25.7251 6.17112 25.354 6.17112 24.9596C6.17112 24.7111 6.09714 24.4965 5.96754 24.321L5.98944 24.3111C5.98742 24.3121 6.35864 24.1503 6.48787 24.0883C6.72814 23.9731 6.93979 23.8511 7.14617 23.701C7.27792 23.6051 7.45445 23.5008 7.72355 23.3563C7.77005 23.3313 7.89609 23.2645 7.97647 23.2218L8.0447 23.1856C8.1755 23.1158 8.27289 23.0623 8.36337 23.0098C8.64532 22.8463 8.83165 22.7111 8.97415 22.5303C9.31169 22.1023 9.2416 21.5221 8.76862 21.2001C8.53689 21.0423 8.22417 20.9518 7.76579 20.8806L7.671 20.866C7.51442 20.8416 7.21354 20.7951 7.1102 20.779C6.89084 20.7445 6.69512 20.7123 6.5206 20.6818C7.66822 20.491 9.30695 20.5611 10.0278 20.9333L10.7129 19.6063C9.24397 18.848 5.89709 18.9255 4.64685 19.7863C3.72987 20.418 3.85292 21.3725 4.807 21.7836C5.20567 21.9553 5.72539 22.0693 6.68714 22.2238C6.52597 22.3173 6.39235 22.4028 6.26785 22.4933C6.14159 22.5851 6.00632 22.6631 5.84224 22.7418C5.76377 22.7793 5.53145 22.8813 5.42492 22.9281L5.3713 22.9518C4.59417 23.3051 4.217 23.794 4.3297 24.6765L4.39072 25.1541L4.50015 25.1876L5.64637 26.1331ZM4.68574 24.8986L4.68337 24.9055L4.68517 24.9006L4.68574 24.8986ZM25.1764 24.9596C25.1764 25.354 25.3645 25.7251 25.701 26.1331L26.8474 25.1876L26.9567 25.1541L27.0177 24.6765C27.1305 23.794 26.7534 23.3051 25.9762 22.9518L25.9227 22.9281C25.8162 22.8815 25.5837 22.7793 25.5052 22.7418C25.3412 22.6631 25.2059 22.5851 25.0797 22.4933C24.9552 22.4028 24.8215 22.3173 24.6604 22.2238C25.622 22.0693 26.1419 21.9553 26.5405 21.7836C27.4945 21.3725 27.6175 20.418 26.7005 19.7863C25.4504 18.9255 22.1035 18.848 20.6345 19.6063L21.3197 20.9333C22.0405 20.5611 23.6792 20.491 24.8269 20.6818C24.6524 20.7123 24.4567 20.7445 24.2372 20.779C24.134 20.7951 23.8332 20.8416 23.6765 20.8658L23.5817 20.8806C23.1234 20.9518 22.8105 21.0423 22.5789 21.2001C22.1059 21.5221 22.0359 22.1023 22.3734 22.5303C22.5159 22.7111 22.7022 22.8463 22.984 23.0098C23.0745 23.0623 23.172 23.1158 23.3027 23.1856L23.3707 23.2216C23.451 23.2643 23.5774 23.3313 23.6239 23.3563C23.893 23.5008 24.0695 23.6051 24.2014 23.701C24.4077 23.8511 24.6194 23.9731 24.8595 24.0883C24.9889 24.1503 25.36 24.3121 25.358 24.3111L25.3799 24.321C25.2504 24.4965 25.1764 24.7111 25.1764 24.9596Z" fill="#AD1619"/>
<path d="M7.20533 20.6665L7.75632 20.7805V21.6017C7.16948 22.07 5.67975 22.8592 5.67975 22.8592V20.6665H7.20533Z" fill="#F1F9FF"/>
<path d="M24.5238 20.6665L23.9728 20.7805V21.6017C24.5597 22.07 26.0495 22.8592 26.0495 22.8592V20.6665H24.5238Z" fill="#F1F9FF"/>
<path fill-rule="evenodd" clip-rule="evenodd" d="M21.9598 12.0096V11.7363C20.9998 11.0472 19.9943 10.7027 18.9435 10.7027C17.9362 10.2569 16.9165 10.0839 15.8845 10.1836L15.885 10.1788C14.3333 10.0269 12.7696 10.7027 12.7696 10.7027C11.1935 10.7027 9.75327 11.7363 9.75327 11.7363V12.0096L11.636 13.9005C11.636 13.9005 12.1659 15.7205 15.8773 15.2927V15.2974C15.8773 15.2974 18.3345 15.2303 18.5072 15.1729C18.5757 15.1501 18.6469 15.1293 18.7193 15.1081C19.2007 14.9676 19.7502 14.8072 20.0772 13.9005L21.9598 12.0096ZM15.8773 10.2672C15.8237 10.8967 15.5178 14.6916 15.8773 15.2799V10.2672Z" fill="#AD1619"/>
<path fill-rule="evenodd" clip-rule="evenodd" d="M11.1893 13.5827L11.1905 13.5769L9.866 12.3308L9.9939 12.1948L11.2368 13.3642L11.2686 13.2179C11.4719 13.2621 11.6205 13.2783 11.7072 13.2691V13.0155L11.9827 13.1646C12.1182 13.2379 12.3122 13.2576 12.5679 13.216C12.7556 13.1855 12.8823 12.9675 12.9237 12.5028L13.0073 11.5649L13.2878 12.4638C13.4147 12.8706 13.6084 13.0499 13.884 13.0499C14.1534 13.0499 14.2615 12.9512 14.2735 12.7024L14.3074 11.9968L14.6265 12.627C14.7414 12.8541 14.9 12.9571 15.1254 12.9571C15.4479 12.9571 15.6632 12.6883 15.6632 12.2666H15.6692H16.0365H16.0425C16.0425 12.6883 16.258 12.9571 16.5804 12.9571C16.8059 12.9571 16.9644 12.8541 17.0794 12.627L17.3984 11.9968L17.4324 12.7024C17.4442 12.9512 17.5525 13.0499 17.8217 13.0499C18.0974 13.0499 18.291 12.8706 18.4179 12.4638L18.6984 11.5649L18.782 12.5028C18.8235 12.9675 18.9502 13.1855 19.1379 13.216C19.3935 13.2576 19.5875 13.2379 19.723 13.1646L19.9985 13.0155V13.2691C20.0852 13.2783 20.2339 13.2621 20.4372 13.2179L20.4962 13.4893L21.872 12.1948L22 12.3308L20.2879 13.9416C20.038 14.4017 19.9122 14.7053 19.9122 14.8315C19.9122 15.0239 19.4115 15.1381 18.4345 15.2554C17.669 15.3474 16.7657 15.409 16.0267 15.4183L15.933 15.4192L15.8394 15.4195C15.1004 15.4102 14.197 15.3474 13.4315 15.2554C12.4544 15.1381 11.9538 15.0239 11.9538 14.8315C11.9538 14.8076 11.9492 14.7774 11.9403 14.741C11.8417 14.6155 11.7725 14.4102 11.7264 14.2251C11.6831 14.1385 11.6337 14.0439 11.5782 13.9416L11.1988 13.5848L11.1893 13.5827ZM20.365 13.6127C20.0594 13.6669 19.8385 13.6614 19.7214 13.566C19.5382 13.6193 19.3234 13.6245 19.0779 13.5845C18.8159 13.5419 18.6334 13.3676 18.5235 13.0784C18.3802 13.261 18.1989 13.3738 17.9819 13.4103C19.1764 13.5797 20.013 13.8178 20.013 13.8178C20.013 13.8178 19.9925 13.9947 19.9424 14.2027C19.9954 14.0938 20.0584 13.9728 20.131 13.8393L20.149 13.8159L20.365 13.6127ZM17.4182 13.3393C17.3142 13.2877 17.2312 13.2128 17.1714 13.1164C17.0822 13.195 16.981 13.2525 16.8685 13.288C17.0562 13.3024 17.2399 13.3197 17.4182 13.3393ZM16.2095 13.2517C16.064 13.1845 15.9432 13.0769 15.8529 12.939C15.7632 13.0759 15.6434 13.183 15.4994 13.2503C15.5847 13.2477 15.6705 13.2459 15.7567 13.245L15.8315 13.2443L15.9064 13.2441C16.008 13.2453 16.1092 13.2484 16.2095 13.2517ZM11.7034 13.8032L11.5293 13.6394C11.7383 13.6601 11.8929 13.6405 11.9843 13.566C12.1676 13.6193 12.3825 13.6245 12.6278 13.5845C12.8899 13.5419 13.0724 13.3676 13.1822 13.0784C13.3214 13.2558 13.4963 13.3672 13.7052 13.4069C12.6753 13.5516 11.9068 13.7485 11.7034 13.8032ZM14.8292 13.2854C14.6484 13.2989 14.4714 13.3151 14.2992 13.3335C14.3977 13.2821 14.4767 13.2093 14.5345 13.1164C14.6214 13.1931 14.7199 13.2498 14.8292 13.2854ZM19.4215 14.8351C19.5522 14.8963 19.657 14.8353 19.74 14.7181C19.7329 14.7505 19.7284 14.7797 19.7265 14.8059C19.7155 14.8131 19.6987 14.8217 19.6767 14.831C19.6152 14.8568 19.5214 14.8844 19.3992 14.9122C19.159 14.967 18.8174 15.0215 18.4122 15.0701C17.6212 15.1651 16.6807 15.2276 15.933 15.2325C15.1852 15.2276 14.2447 15.1651 13.4538 15.0701C13.0487 15.0215 12.7069 14.967 12.4668 14.9122C12.3644 14.8889 12.2819 14.8658 12.2216 14.8437C12.2283 14.8411 12.235 14.8383 12.2417 14.8351C12.6495 14.6443 15.346 14.4653 15.8315 14.4344C16.3172 14.4653 19.0137 14.6443 19.4215 14.8351Z" fill="#C88A02"/>
<path fill-rule="evenodd" clip-rule="evenodd" d="M15.8536 8.91211C16.1628 8.91211 16.4136 8.66139 16.4136 8.35211C16.4136 8.04283 16.1628 7.79211 15.8536 7.79211C15.5443 7.79211 15.2936 8.04283 15.2936 8.35211C15.2936 8.66139 15.5443 8.91211 15.8536 8.91211Z" fill="#005BBF"/>
<path fill-rule="evenodd" clip-rule="evenodd" d="M15.4894 11.6613C15.5012 11.7227 15.5199 11.7799 15.5435 11.8309C15.4712 11.8033 15.3854 11.7873 15.2932 11.7873C15.0355 11.7873 14.8265 11.9127 14.8265 12.0673C14.8265 12.2219 15.0355 12.3473 15.2932 12.3473C15.5509 12.3473 15.7599 12.2219 15.7599 12.0673C15.7599 12.2219 15.9689 12.3473 16.2265 12.3473C16.4842 12.3473 16.6932 12.2219 16.6932 12.0673C16.6932 11.9127 16.4842 11.7873 16.2265 11.7873C16.1617 11.7873 16.0999 11.7952 16.0437 11.8096C16.0572 11.733 16.0567 11.6453 16.039 11.5544C15.9899 11.3014 15.8269 11.1202 15.675 11.1497C15.5234 11.1792 15.44 11.4083 15.4894 11.6613ZM12.7435 12.0176C12.7199 11.9666 12.7012 11.9094 12.6893 11.8479C12.6401 11.5949 12.7233 11.3659 12.8751 11.3364C13.0269 11.3069 13.1898 11.4881 13.239 11.7411C13.2567 11.8319 13.2572 11.9197 13.2437 11.9963C13.2998 11.9819 13.3616 11.974 13.4265 11.974C13.6842 11.974 13.8932 12.0993 13.8932 12.254C13.8932 12.4086 13.6842 12.534 13.4265 12.534C13.1688 12.534 12.9598 12.4086 12.9598 12.254C12.9598 12.4086 12.7509 12.534 12.4932 12.534C12.2354 12.534 12.0265 12.4086 12.0265 12.254C12.0265 12.0993 12.2354 11.974 12.4932 11.974C12.5853 11.974 12.6711 11.99 12.7435 12.0176ZM18.5897 12.1882C18.5682 12.3414 18.3439 12.4364 18.0887 12.4006C17.8334 12.3647 17.644 12.2115 17.6655 12.0583C17.687 11.9052 17.9114 11.8101 18.1665 11.846C18.2579 11.8588 18.3405 11.8866 18.4084 11.9241C18.392 11.8703 18.3815 11.811 18.3784 11.7485C18.3649 11.4911 18.479 11.2759 18.6335 11.2678C18.7879 11.2597 18.924 11.4618 18.9375 11.7192C18.9424 11.8116 18.9307 11.8986 18.9067 11.9725C18.9644 11.9661 19.0265 11.9669 19.0909 11.9759C19.346 12.0118 19.5355 12.165 19.514 12.3181C19.4925 12.4713 19.2682 12.5663 19.0129 12.5305C18.7577 12.4946 18.5682 12.3414 18.5897 12.1882ZM20.367 12.9287C20.5947 13.0497 20.838 13.0371 20.9105 12.9005L20.9144 12.8929C20.9369 12.9166 20.9634 12.9339 20.9937 12.9431C21.1415 12.9883 21.3225 12.8252 21.3979 12.5787C21.4732 12.3322 21.4144 12.0958 21.2665 12.0506C21.1187 12.0054 20.9377 12.1685 20.8624 12.415C20.844 12.4749 20.8337 12.5341 20.8305 12.5902C20.7797 12.5319 20.7114 12.4774 20.63 12.4342C20.4024 12.3132 20.159 12.3258 20.0865 12.4623C20.0139 12.5989 20.1395 12.8077 20.367 12.9287ZM11.2079 12.9858C10.9803 13.1068 10.737 13.0942 10.6644 12.9577C10.663 12.9552 10.6618 12.9526 10.6606 12.9501C10.6381 12.9738 10.6116 12.991 10.5813 13.0003C10.4334 13.0455 10.2525 12.8824 10.1771 12.6359C10.1018 12.3894 10.1606 12.153 10.3085 12.1078C10.4563 12.0625 10.6373 12.2257 10.7127 12.4722C10.731 12.532 10.7414 12.5913 10.7445 12.6474C10.7954 12.5891 10.8637 12.5346 10.945 12.4914C11.1725 12.3704 11.4159 12.383 11.4885 12.5195C11.5611 12.6561 11.4354 12.8648 11.2079 12.9858Z" fill="#C88A02"/>
<path fill-rule="evenodd" clip-rule="evenodd" d="M15.6446 6.79436H16.0334V7.04002H16.2876V7.42891H16.0334V8.20669H16.2876V8.59557H15.3864V8.20669H15.6446V7.42891H15.3864V7.04002H15.6446V6.79436Z" fill="#C88A02"/>
<path d="M15.5731 8.90627H16.3198V11.3329H15.5731V8.90627Z" fill="#C88A02"/>
<path d="M12.5674 9.31308L12.5642 9.49973C10.909 9.47083 9.95959 9.71236 9.71859 10.1938C9.46942 10.6915 9.51575 11.2965 9.86489 12.0152L9.69699 12.0968C9.32447 11.33 9.2736 10.6657 9.55167 10.1102C9.83789 9.5385 10.8423 9.28296 12.5674 9.31308Z" fill="#FDFAFF"/>
<path d="M12.8878 10.9682L12.7921 11.1285C12.4316 10.9133 12.2512 10.546 12.2512 10.0398C12.2512 9.31235 12.626 8.88577 13.4549 8.59384C13.9839 8.40752 14.7067 8.4839 15.625 8.81687L15.5613 8.99235C14.6797 8.67272 13.9976 8.60062 13.5169 8.7699C12.7566 9.03767 12.4379 9.40045 12.4379 10.0398C12.4379 10.484 12.5877 10.7891 12.8878 10.9682Z" fill="#FDFAFF"/>
<path d="M10.1001 11.7289L9.74791 11.8526C9.38244 10.812 9.48681 10.1053 10.1113 9.8005C10.6616 9.53188 11.4635 9.42256 12.5212 9.46543L12.5061 9.83845C11.5047 9.79788 10.7597 9.89943 10.2751 10.136C9.86466 10.3363 9.78958 10.8446 10.1001 11.7289Z" fill="#C88A02"/>
<path d="M14.2154 9.06473C13.3618 9.06473 13.0113 9.27261 12.8111 9.88643C12.6834 10.2776 12.8072 10.6115 13.2085 10.9231L12.9795 11.218C12.46 10.8145 12.2768 10.3204 12.4561 9.77064C12.7113 8.98839 13.2121 8.69139 14.2154 8.69139C14.873 8.69139 15.3852 8.86416 15.7419 9.21576L15.7975 9.27059V11.0705H15.4242V9.43016C15.1457 9.18819 14.7455 9.06473 14.2154 9.06473Z" fill="#C88A02"/>
<path d="M19.0814 9.49946L19.0848 9.68609C20.7399 9.65721 21.6894 9.89874 21.9304 10.3802C22.1796 10.8779 22.1333 11.4829 21.7841 12.2016L21.9519 12.2832C22.3244 11.5164 22.3753 10.852 22.0973 10.2966C21.8111 9.72486 20.8068 9.46934 19.0814 9.49946Z" fill="#FDFAFF"/>
<path d="M18.4971 11.0073L18.5928 11.1676C18.9533 10.9523 19.1336 10.5851 19.1336 10.0789C19.1336 9.35143 18.7589 8.92483 17.9299 8.6329C17.4009 8.44658 16.6783 8.52298 15.7599 8.85595L15.8236 9.03143C16.7051 8.7118 17.3873 8.63968 17.8679 8.80896C18.6283 9.07673 18.9469 9.43953 18.9469 10.0789C18.9469 10.5231 18.7971 10.8281 18.4971 11.0073Z" fill="#FDFAFF"/>
<path d="M21.6653 11.9153L22.0176 12.039C22.3831 10.9984 22.2786 10.2917 21.6541 9.98688C21.1039 9.71826 20.3019 9.60894 19.2443 9.65181L19.2594 10.0248C20.2608 9.98426 21.0058 10.0858 21.4904 10.3224C21.9008 10.5227 21.9759 11.031 21.6653 11.9153Z" fill="#C88A02"/>
<path d="M17.5289 9.09323C18.3825 9.09323 18.733 9.30113 18.9332 9.91493C19.0609 10.3061 18.937 10.64 18.5357 10.9516L18.7647 11.2465C19.2844 10.843 19.4675 10.3489 19.2882 9.79915C19.0329 9.0169 18.5322 8.7199 17.5289 8.7199C16.8714 8.7199 16.359 8.89266 16.0024 9.24426L15.9467 9.2991V11.099H16.32V9.45866C16.5987 9.21671 16.9987 9.09323 17.5289 9.09323Z" fill="#C88A02"/>
<path opacity="0.3" fill-rule="evenodd" clip-rule="evenodd" d="M9.78665 15.4402H21.9199V26.3415C21.9199 26.3415 21.0187 30.0002 15.8532 30.0002C10.6879 30.0002 9.78665 26.2452 9.78665 26.2452V15.4402Z" fill="#E1E5E8"/>
<mask id="mask4_842_293" style="mask-type:luminance" maskUnits="userSpaceOnUse" x="9" y="15" width="13" height="16">
<path fill-rule="evenodd" clip-rule="evenodd" d="M9.78665 15.4402H21.9199V26.3415C21.9199 26.3415 21.0187 30.0002 15.8532 30.0002C10.6879 30.0002 9.78665 26.2452 9.78665 26.2452V15.4402Z" fill="white"/>
</mask>
<g mask="url(#mask4_842_293)">
<path d="M9.78668 22.1606H15.9467V29.4406H9.78668V22.1606Z" fill="#FFC034"/>
<path d="M10.5333 22.5342H11.28V29.4409H10.5333V22.5342Z" fill="#AD1619"/>
<path d="M13.1464 22.5342H13.8931V29.4409H13.1464V22.5342Z" fill="#AD1619"/>
<path d="M11.8399 22.5342H12.5866V29.4409H11.8399V22.5342Z" fill="#AD1619"/>
<path d="M14.4534 22.5342H15.2001V29.4409H14.4534V22.5342Z" fill="#AD1619"/>
<path d="M9.78667 15.2539H15.9467V22.3472H9.78667V15.2539Z" fill="#AD1619"/>
<path d="M15.76 21.9742H21.92V29.0676H15.76V21.9742Z" fill="#AD1619"/>
<path d="M15.76 15.4402H22.2933V22.3469H15.76V15.4402Z" fill="#F1F9FF"/>
<path fill-rule="evenodd" clip-rule="evenodd" d="M12.3999 16.001H12.9599V17.5497H13.3332V16.7753H13.8932V17.5497H14.4532V18.5175H13.8932V20.2597H14.4532V21.2277H11.0932V20.2597H11.6532V18.5175H11.0932V17.5497H11.4665V16.7753H12.0265V17.5497H12.3999V16.001Z" fill="#C88A02"/>
<path d="M18.9647 16.3256L19.3469 15.9164L20.1495 16.6661L19.7672 17.0753L18.9647 16.3256Z" fill="#C88A02"/>
<path fill-rule="evenodd" clip-rule="evenodd" d="M21.2669 26.9008V22.8141H16.6003V26.8666L16.6076 26.8981C16.8438 27.9048 17.6483 28.4141 18.9336 28.4141C20.2174 28.4141 21.0219 27.918 21.2591 26.9331L21.2669 26.9008ZM18.9336 27.8541C17.9024 27.8541 17.3393 27.5068 17.1603 26.8006V23.3741H20.7069V26.8331C20.5283 27.5161 19.9651 27.8541 18.9336 27.8541Z" fill="#FFC034"/>
<path fill-rule="evenodd" clip-rule="evenodd" d="M19.1261 23.1551H18.7372V25.008L17.2042 23.3406L16.9294 23.5933L18.3157 25.1011H17.0596V25.6611H18.0246H18.3462L16.9294 27.2023L17.2042 27.455L18.7372 25.7876V27.9533H19.1261V25.9825L20.4799 27.455L20.7547 27.2023L19.3377 25.6611H20.9194V25.1011H19.3684L20.7547 23.5933L20.4799 23.3406L19.1261 24.8131V23.1551Z" fill="#FFC034"/>
<path fill-rule="evenodd" clip-rule="evenodd" d="M19.8046 29.0718C19.8046 29.0718 15.851 29.3827 15.851 26.8327C15.851 26.8327 15.8133 29.0718 11.6849 29.0718V31.0848H19.8046V29.0718Z" fill="#F1F9FF"/>
<path fill-rule="evenodd" clip-rule="evenodd" d="M15.8534 23.654C16.6266 23.654 17.2534 22.9853 17.2534 22.1607C17.2534 21.336 16.6266 20.6673 15.8534 20.6673C15.0803 20.6673 14.4534 21.336 14.4534 22.1607C14.4534 22.9853 15.0803 23.654 15.8534 23.654Z" fill="#005BBF" stroke="#AD1619" stroke-width="11.6911"/>
</g>
</g>
</g>
</g>
</g>
<defs>
<clipPath id="clip0_842_293">
<rect width="40" height="40" rx="20" fill="white"/>
</clipPath>
<clipPath id="clip1_842_293">
<rect width="40" height="40" rx="20" fill="white"/>
</clipPath>
</defs>
</svg>
