<svg width="40" height="40" viewBox="0 0 40 40" fill="none" xmlns="http://www.w3.org/2000/svg">
<g clip-path="url(#clip0_842_266)">
<rect width="40" height="40" rx="20" fill="#FDFAFF"/>
<path fill-rule="evenodd" clip-rule="evenodd" d="M-0.666992 0H52.6663V40H-0.666992V0Z" fill="#E31D1C"/>
<path fill-rule="evenodd" clip-rule="evenodd" d="M24.359 7.58015L22.6755 8.59653L23.0595 6.61315L21.6575 5.12878L23.5559 5.04852L24.359 3.19653L25.1624 5.04852H27.0575L25.6587 6.61315L26.0799 8.59653L24.359 7.58015Z" fill="#FECA00"/>
<path fill-rule="evenodd" clip-rule="evenodd" d="M11.0288 16.0117L6.22737 18.5966L7.32254 13.5524L3.32417 9.77732L8.73821 9.5732L11.0288 4.8632L13.3193 9.5732H18.7242L14.735 13.5524L15.936 18.5966L11.0288 16.0117Z" fill="#FECA00"/>
<path fill-rule="evenodd" clip-rule="evenodd" d="M27.6924 14.2468L26.0089 15.2632L26.3929 13.2798L24.9909 11.7954L26.8893 11.7152L27.6924 9.8632L28.4958 11.7152H30.3909L28.9921 13.2798L29.4133 15.2632L27.6924 14.2468Z" fill="#FECA00"/>
<path fill-rule="evenodd" clip-rule="evenodd" d="M26.0257 20.9135L24.3422 21.9298L24.7262 19.9465L23.3242 18.462L25.2226 18.3818L26.0257 16.5298L26.8291 18.3818H28.7242L27.3254 19.9465L27.7466 21.9298L26.0257 20.9135Z" fill="#FECA00"/>
<path fill-rule="evenodd" clip-rule="evenodd" d="M21.0257 25.9135L19.3422 26.9299L19.7262 24.9465L18.3242 23.462L20.2225 23.3819L21.0257 21.5299L21.829 23.3819H23.7242L22.3253 24.9465L22.7465 26.9299L21.0257 25.9135Z" fill="#FECA00"/>
</g>
<defs>
<clipPath id="clip0_842_266">
<rect width="40" height="40" rx="20" fill="white"/>
</clipPath>
</defs>
</svg>
