<svg width="34" height="34" viewBox="0 0 34 34" fill="none" xmlns="http://www.w3.org/2000/svg">
<g id="google">
<path d="M12.1758 1.11888C8.77869 2.29738 5.84901 4.5342 3.8171 7.50079C1.7852 10.4674 0.758165 14.0074 0.886863 17.6008C1.01556 21.1943 2.2932 24.6517 4.53213 27.4653C6.77105 30.279 9.85324 32.3005 13.326 33.2329C16.1414 33.9594 19.0911 33.9913 21.9216 33.3259C24.4857 32.75 26.8563 31.518 28.8013 29.7506C30.8256 27.855 32.2949 25.4434 33.0513 22.7753C33.8732 19.8737 34.0195 16.8225 33.4789 13.8556H17.6689V20.4139H26.825C26.642 21.4599 26.2499 22.4582 25.6721 23.3491C25.0943 24.24 24.3427 25.0052 23.4622 25.5989C22.3443 26.3387 21.0839 26.8364 19.7621 27.0598C18.4365 27.3064 17.0767 27.3064 15.7511 27.0598C14.4075 26.7823 13.1364 26.2278 12.0191 25.4315C10.2239 24.1608 8.87589 22.3554 8.16753 20.2731C7.44739 18.1518 7.44739 15.8521 8.16753 13.7308C8.67176 12.2438 9.50531 10.89 10.606 9.77029C11.8655 8.4654 13.4602 7.53265 15.215 7.0744C16.9698 6.61614 18.8169 6.65007 20.5536 7.17247C21.9104 7.58877 23.1511 8.31646 24.1768 9.29747C25.2091 8.27039 26.2398 7.24065 27.2686 6.20826C27.7999 5.6531 28.3789 5.12451 28.9022 4.55607C27.3364 3.09916 25.4987 1.96544 23.4941 1.21982C19.8436 -0.105678 15.8493 -0.141299 12.1758 1.11888Z" fill="white"/>
<path d="M12.1758 1.11888C15.849 -0.142156 19.8433 -0.107472 23.4941 1.21716C25.499 1.96785 27.336 3.10703 28.8996 4.56935C28.3683 5.13779 27.8078 5.66904 27.266 6.22154C26.2353 7.25039 25.2056 8.2757 24.1768 9.29747C23.1511 8.31646 21.9104 7.58877 20.5536 7.17247C18.8174 6.64824 16.9704 6.61234 15.2151 7.06873C13.4599 7.52511 11.8643 8.45614 10.6033 9.75966C9.50265 10.8794 8.6691 12.2332 8.16488 13.7201L2.65847 9.45685C4.62943 5.54834 8.04202 2.55863 12.1758 1.11888Z" fill="#E33629"/>
<path d="M1.19753 13.6803C1.49328 12.2134 1.98465 10.7929 2.65847 9.45685L8.16488 13.7308C7.44474 15.8521 7.44474 18.1518 8.16488 20.2731C6.33029 21.6898 4.49482 23.1135 2.65847 24.5443C0.97215 21.1877 0.457853 17.3632 1.19753 13.6803Z" fill="#F8BD00"/>
<path d="M17.6689 13.8529H33.4789C34.0195 16.8198 33.8732 19.8711 33.0513 22.7726C32.2949 25.4408 30.8256 27.8523 28.8013 29.7479C27.0243 28.3614 25.2393 26.9854 23.4622 25.5989C24.3432 25.0046 25.0952 24.2386 25.673 23.3467C26.2509 22.4549 26.6427 21.4555 26.825 20.4086H17.6689C17.6663 18.2251 17.6689 16.039 17.6689 13.8529Z" fill="#587DBD"/>
<path d="M2.65581 24.5444C4.49217 23.1277 6.32764 21.7039 8.16222 20.2731C8.87199 22.3561 10.2219 24.1616 12.0191 25.4315C13.1399 26.2241 14.4137 26.7741 15.7591 27.0465C17.0847 27.2931 18.4444 27.2931 19.77 27.0465C21.0919 26.8231 22.3523 26.3255 23.4702 25.5856C25.2472 26.9722 27.0322 28.3481 28.8092 29.7347C26.8646 31.503 24.494 32.7359 21.9296 33.3126C19.0991 33.978 16.1494 33.9461 13.3339 33.2197C11.1072 32.6251 9.02729 31.577 7.22456 30.1411C5.31665 28.626 3.75825 26.717 2.65581 24.5444Z" fill="#319F43"/>
</g>
</svg>
