<svg width="34" height="34" viewBox="0 0 34 34" fill="none" xmlns="http://www.w3.org/2000/svg">
<g id="google">
<path d="M12.1768 1.11888C8.77966 2.29738 5.84998 4.5342 3.81808 7.50079C1.78617 10.4674 0.759142 14.0074 0.887839 17.6008C1.01654 21.1943 2.29418 24.6517 4.5331 27.4653C6.77203 30.279 9.85421 32.3005 13.3269 33.2329C16.1424 33.9594 19.0921 33.9913 21.9226 33.3259C24.4867 32.75 26.8573 31.518 28.8023 29.7506C30.8265 27.855 32.2959 25.4434 33.0523 22.7753C33.8741 19.8737 34.0204 16.8225 33.4799 13.8556H17.6699V20.4139H26.826C26.643 21.4599 26.2509 22.4582 25.6731 23.3491C25.0952 24.24 24.3436 25.0052 23.4632 25.5989C22.3453 26.3387 21.0849 26.8364 19.763 27.0598C18.4374 27.3064 17.0777 27.3064 15.7521 27.0598C14.4084 26.7823 13.1374 26.2278 12.0201 25.4315C10.2248 24.1608 8.87687 22.3554 8.16851 20.2731C7.44837 18.1518 7.44837 15.8521 8.16851 13.7308C8.67273 12.2438 9.50628 10.89 10.6069 9.77029C11.8665 8.4654 13.4612 7.53265 15.216 7.0744C16.9707 6.61614 18.8178 6.65007 20.5546 7.17247C21.9114 7.58877 23.1521 8.31646 24.1777 9.29747C25.2101 8.27039 26.2407 7.24065 27.2696 6.20826C27.8009 5.6531 28.3799 5.12451 28.9032 4.55607C27.3374 3.09916 25.4996 1.96544 23.4951 1.21982C19.8446 -0.105678 15.8503 -0.141299 12.1768 1.11888Z" fill="white"/>
<path d="M12.1768 1.11888C15.85 -0.142156 19.8443 -0.107472 23.4951 1.21716C25.5 1.96785 27.3369 3.10703 28.9005 4.56935C28.3693 5.13779 27.8088 5.66904 27.2669 6.22154C26.2363 7.25039 25.2066 8.2757 24.1777 9.29747C23.1521 8.31646 21.9114 7.58877 20.5546 7.17247C18.8184 6.64824 16.9714 6.61234 15.2161 7.06873C13.4609 7.52511 11.8652 8.45614 10.6043 9.75966C9.50363 10.8794 8.67008 12.2332 8.16585 13.7201L2.65945 9.45685C4.63041 5.54834 8.043 2.55863 12.1768 1.11888Z" fill="#E33629"/>
<path d="M1.19851 13.6803C1.49425 12.2134 1.98562 10.7929 2.65945 9.45685L8.16585 13.7308C7.44571 15.8521 7.44571 18.1518 8.16585 20.2731C6.33127 21.6898 4.4958 23.1135 2.65945 24.5443C0.973127 21.1877 0.458829 17.3632 1.19851 13.6803Z" fill="#F8BD00"/>
<path d="M17.6699 13.8529H33.4799C34.0204 16.8198 33.8741 19.8711 33.0523 22.7726C32.2959 25.4408 30.8265 27.8523 28.8023 29.7479C27.0252 28.3614 25.2402 26.9854 23.4632 25.5989C24.3442 25.0046 25.0962 24.2386 25.674 23.3467C26.2519 22.4549 26.6437 21.4555 26.826 20.4086H17.6699C17.6673 18.2251 17.6699 16.039 17.6699 13.8529Z" fill="#587DBD"/>
<path d="M2.65679 24.5444C4.49314 23.1277 6.32861 21.7039 8.1632 20.2731C8.87297 22.3561 10.2229 24.1616 12.0201 25.4315C13.1409 26.2241 14.4147 26.7741 15.7601 27.0465C17.0857 27.2931 18.4454 27.2931 19.771 27.0465C21.0928 26.8231 22.3532 26.3255 23.4712 25.5856C25.2482 26.9722 27.0332 28.3481 28.8102 29.7347C26.8656 31.503 24.4949 32.7359 21.9305 33.3126C19.1001 33.978 16.1503 33.9461 13.3349 33.2197C11.1082 32.6251 9.02827 31.577 7.22554 30.1411C5.31763 28.626 3.75923 26.717 2.65679 24.5444Z" fill="#319F43"/>
</g>
</svg>
