<svg width="32" height="32" viewBox="0 0 32 32" fill="none" xmlns="http://www.w3.org/2000/svg">
<path d="M8.95299 9.00732C8.81666 8.79122 8.63121 8.60411 8.40905 8.4585C8.18688 8.31289 7.93312 8.21213 7.66474 8.16296C7.39636 8.1138 7.11953 8.11735 6.85278 8.1734C6.58603 8.22944 6.3355 8.33668 6.11794 8.48794C5.90038 8.63921 5.72081 8.83101 5.59123 9.05052C5.46166 9.27003 5.38506 9.51219 5.36657 9.76082C5.34808 10.0094 5.38813 10.2588 5.48402 10.4922C5.57991 10.7256 5.72945 10.9377 5.92263 11.1142L12.2039 18.6L13.6679 20.2791L9.37073 15.1576C9.23452 14.9413 9.04914 14.754 8.82699 14.6082C8.60484 14.4624 8.35104 14.3615 8.08257 14.3122C7.81411 14.2629 7.53717 14.2664 7.2703 14.3224C7.00343 14.3784 6.75277 14.4856 6.53511 14.6369C6.31745 14.7882 6.1378 14.9801 6.00819 15.1997C5.87857 15.4193 5.80198 15.6616 5.78355 15.9103C5.76511 16.159 5.80525 16.4084 5.90127 16.6419C5.9973 16.8754 6.14701 17.0875 6.34037 17.264L10.6381 22.3856L14.053 26.3015C17.031 29.4113 21.9584 29.2413 25.3743 26.532C27.3374 24.9613 28.5998 22.7901 28.9227 20.4294C29.1329 18.3308 29.3622 12.8439 29.3622 12.8439C29.2631 11.5545 27.6547 10.6011 27.4478 11.2674L24.7823 16.1044L22.9491 14.0109L15.6155 5.48007C15.4795 5.26359 15.2941 5.07608 15.0719 4.9301C14.8498 4.78413 14.5959 4.68305 14.3273 4.63365C14.0587 4.58425 13.7816 4.58766 13.5146 4.64366C13.2476 4.69965 12.9968 4.80694 12.7791 4.95833C12.5613 5.10973 12.3816 5.30173 12.252 5.52148C12.1224 5.74123 12.0459 5.98365 12.0276 6.23251C12.0093 6.48136 12.0496 6.73091 12.1458 6.96442C12.2421 7.19794 12.3921 7.41003 12.5857 7.5865L14.8999 10.3443L18.3981 14.5483L11.0896 5.78347C10.9536 5.56681 10.7684 5.37911 10.5462 5.23296C10.324 5.0868 10.0701 4.98557 9.80145 4.93604C9.53279 4.88651 9.2556 4.88984 8.98847 4.94579C8.72133 5.00174 8.47043 5.10902 8.25257 5.26045C8.03471 5.41188 7.85493 5.60395 7.72528 5.82379C7.59564 6.04363 7.51912 6.28616 7.50087 6.53511C7.48261 6.78407 7.52304 7.0337 7.61943 7.26727C7.71583 7.50085 7.86597 7.71296 8.05979 7.8894L16.0502 17.3161" fill="#FCEA2B"/>
<path d="M9.28328 9.00732C9.15065 8.79122 8.97024 8.60411 8.75411 8.4585C8.53798 8.31289 8.29111 8.21213 8.03001 8.16296C7.76892 8.1138 7.49961 8.11735 7.2401 8.1734C6.98059 8.22944 6.73686 8.33668 6.52521 8.48794C6.31356 8.63921 6.13886 8.83101 6.01281 9.05052C5.88675 9.27003 5.81224 9.51219 5.79425 9.76082C5.77626 10.0094 5.81522 10.2588 5.90851 10.4922C6.0018 10.7256 6.14727 10.9377 6.33521 11.1142L12.4459 18.6L13.8702 20.2791L9.68967 15.1576C9.55717 14.9413 9.37682 14.754 9.1607 14.6082C8.94458 14.4624 8.69767 14.3615 8.4365 14.3122C8.17532 14.2629 7.90591 14.2664 7.64628 14.3224C7.38666 14.3784 7.14281 14.4856 6.93106 14.6369C6.7193 14.7882 6.54453 14.9801 6.41844 15.1997C6.29235 15.4193 6.21784 15.6616 6.1999 15.9103C6.18196 16.159 6.22101 16.4084 6.31443 16.6419C6.40785 16.8754 6.55349 17.0875 6.7416 17.264L10.9226 22.3856L14.2448 26.3015C17.142 29.4113 21.9355 29.2413 25.2587 26.532C27.1684 24.9613 28.3966 22.7901 28.7107 20.4294C28.9152 18.3308 29.1383 12.8439 29.1383 12.8439C29.0418 11.5545 27.4772 10.6011 27.2759 11.2674L24.6828 16.1044L22.8993 14.0109L15.7649 5.48007C15.6325 5.26359 15.4522 5.07608 15.2361 4.9301C15.0199 4.78413 14.7729 4.68305 14.5116 4.63365C14.2504 4.58425 13.9808 4.58766 13.721 4.64366C13.4613 4.69965 13.2173 4.80694 13.0055 4.95833C12.7936 5.10973 12.6188 5.30173 12.4927 5.52148C12.3666 5.74123 12.2922 5.98365 12.2744 6.23251C12.2566 6.48136 12.2958 6.73091 12.3894 6.96442C12.4831 7.19794 12.629 7.41003 12.8174 7.5865L15.0687 10.3443L18.4719 14.5483L11.3619 5.78347C11.2296 5.56681 11.0494 5.37911 10.8332 5.23296C10.6171 5.0868 10.3701 4.98557 10.1087 4.93604C9.84734 4.88651 9.57768 4.88984 9.3178 4.94579C9.05792 5.00174 8.81382 5.10902 8.60188 5.26045C8.38993 5.41188 8.21503 5.60395 8.08891 5.82379C7.96279 6.04363 7.88835 6.28616 7.87059 6.53511C7.85283 6.78407 7.89216 7.0337 7.98593 7.26727C8.07971 7.50085 8.22577 7.71296 8.41433 7.8894L16.1877 17.3161" stroke="black" stroke-linecap="round" stroke-linejoin="round"/>
<path d="M5.5819 20.7228C5.5819 21.9949 6.50755 23.0246 7.65096 23.0246M3.13824 20.5072C3.13824 23.2814 5.15697 25.5261 7.65096 25.5261M23.379 9.99782C23.379 8.72524 22.4533 7.69606 21.3094 7.69606M25.8221 10.2135C25.8221 7.43927 23.8034 5.19452 21.3094 5.19452" stroke="black" stroke-miterlimit="10" stroke-linecap="round" stroke-linejoin="round"/>
</svg>
