<svg width="1920" height="800" viewBox="0 0 1920 800" fill="none" xmlns="http://www.w3.org/2000/svg">
<path opacity="0.2" d="M2343.09 556.94C2369.21 644.465 2404.13 731.138 2534.54 729.796C2643.93 728.671 2733.97 679.68 2781.31 604.262C2820.28 542.188 2745.31 506.927 2768.97 442.659C2809.81 331.662 3057.08 329.167 3065.78 218.237C3073.13 124.463 3006.62 54.003 2880.25 39.6789C2729.95 22.6431 2610.73 107.978 2503.06 201.333C2374.24 313.017 2305.63 431.422 2343.09 556.94Z" fill="url(#paint0_linear_2375_145590)"/>
<g opacity="0.15" filter="url(#filter1_f_2375_145590)">
<ellipse cx="402.688" cy="433.203" rx="402.688" ry="433.203" transform="matrix(-0.540425 0.841392 -0.99204 -0.125927 2209.74 -386.991)" fill="#49FFB3"/>
</g>
<g opacity="0.25" filter="url(#filter2_f_2375_145590)">
<path d="M1597.74 187.34C1576.8 74.2533 1545.8 -39.7485 1397.79 -67.1608C1273.65 -90.1536 1166.69 -50.1745 1105.53 31.7068C1055.19 99.1 990.573 105.904 957.379 179.399C900.052 306.329 765.545 307.406 744.682 441.419C727.045 554.706 795.473 655.877 937.347 701.588C1106.08 755.953 1249.72 677.931 1381.07 587.511C1538.21 479.337 1627.76 349.514 1597.74 187.34Z" fill="#00FCFF"/>
</g>
<g opacity="0.4" filter="url(#filter3_f_2375_145590)">
<path d="M-253.373 1006.26C-224.183 1180.09 -178.531 1352.98 63.0043 1361.17C265.598 1368.03 512.804 1178.21 616.861 1034.22C702.507 915.708 624.042 875.383 681.84 751.295C781.662 536.986 1117.18 618.755 1157.52 401.909C1191.61 218.6 1083.98 74.8891 853.337 36.3127C579.034 -9.56684 339.857 147.913 120.273 322.078C-142.426 530.439 -295.234 756.976 -253.373 1006.26Z" fill="url(#paint1_linear_2375_145590)"/>
</g>
<defs>
<filter id="filter1_f_2375_145590" x="880.546" y="-645.958" width="1363.64" height="1086.47" filterUnits="userSpaceOnUse" color-interpolation-filters="sRGB">
<feFlood flood-opacity="0" result="BackgroundImageFix"/>
<feBlend mode="normal" in="SourceGraphic" in2="BackgroundImageFix" result="shape"/>
<feGaussianBlur stdDeviation="100" result="effect1_foregroundBlur_2375_145590"/>
</filter>
<filter id="filter2_f_2375_145590" x="371.958" y="-443.592" width="1601.54" height="1533.14" filterUnits="userSpaceOnUse" color-interpolation-filters="sRGB">
<feFlood flood-opacity="0" result="BackgroundImageFix"/>
<feBlend mode="normal" in="SourceGraphic" in2="BackgroundImageFix" result="shape"/>
<feGaussianBlur stdDeviation="185" result="effect1_foregroundBlur_2375_145590"/>
</filter>
<filter id="filter3_f_2375_145590" x="-560.234" y="-271.742" width="2023.93" height="1933.09" filterUnits="userSpaceOnUse" color-interpolation-filters="sRGB">
<feFlood flood-opacity="0" result="BackgroundImageFix"/>
<feBlend mode="normal" in="SourceGraphic" in2="BackgroundImageFix" result="shape"/>
<feGaussianBlur stdDeviation="150" result="effect1_foregroundBlur_2375_145590"/>
</filter>
<linearGradient id="paint0_linear_2375_145590" x1="2437.74" y1="262.502" x2="2778.74" y2="616.628" gradientUnits="userSpaceOnUse">
<stop stop-color="#8A2DE7"/>
<stop offset="1" stop-color="#5659FE"/>
</linearGradient>
<linearGradient id="paint1_linear_2375_145590" x1="-13.9346" y1="436.631" x2="568.181" y2="1100.82" gradientUnits="userSpaceOnUse">
<stop stop-color="#A731FF"/>
<stop offset="1" stop-color="#5659FE"/>
</linearGradient>
</defs>
</svg>
