<svg width="42" height="39" viewBox="0 0 42 39" fill="none" xmlns="http://www.w3.org/2000/svg">
<g id="metamask">
<path id="Vector" d="M39.0082 0.5L23.4004 12.0922L26.2867 5.25294L39.0082 0.5Z" fill="#E2761B" stroke="#E2761B" stroke-linecap="round" stroke-linejoin="round"/>
<g id="Group">
<path id="Vector_2" d="M2.97656 0.5L18.4589 12.202L15.7138 5.25294L2.97656 0.5Z" fill="#E4761B" stroke="#E4761B" stroke-linecap="round" stroke-linejoin="round"/>
<path id="Vector_3" d="M33.3932 27.3706L29.2363 33.7392L38.1304 36.1863L40.6873 27.5118L33.3932 27.3706Z" fill="#E4761B" stroke="#E4761B" stroke-linecap="round" stroke-linejoin="round"/>
<path id="Vector_4" d="M1.33008 27.5118L3.87125 36.1863L12.7654 33.7392L8.60851 27.3706L1.33008 27.5118Z" fill="#E4761B" stroke="#E4761B" stroke-linecap="round" stroke-linejoin="round"/>
<path id="Vector_5" d="M12.2636 16.6098L9.78516 20.3588L18.6165 20.7509L18.3028 11.2607L12.2636 16.6098Z" fill="#E4761B" stroke="#E4761B" stroke-linecap="round" stroke-linejoin="round"/>
<path id="Vector_6" d="M29.722 16.6097L23.6043 11.1509L23.4004 20.7509L32.2161 20.3587L29.722 16.6097Z" fill="#E4761B" stroke="#E4761B" stroke-linecap="round" stroke-linejoin="round"/>
<path id="Vector_7" d="M12.7656 33.7392L18.0676 31.1509L13.4872 27.5745L12.7656 33.7392Z" fill="#E4761B" stroke="#E4761B" stroke-linecap="round" stroke-linejoin="round"/>
<path id="Vector_8" d="M23.918 31.1509L29.2356 33.7392L28.4984 27.5745L23.918 31.1509Z" fill="#E4761B" stroke="#E4761B" stroke-linecap="round" stroke-linejoin="round"/>
</g>
<g id="Group_2">
<path id="Vector_9" d="M29.2356 33.7391L23.918 31.1509L24.3415 34.6175L24.2944 36.0764L29.2356 33.7391Z" fill="#D7C1B3" stroke="#D7C1B3" stroke-linecap="round" stroke-linejoin="round"/>
<path id="Vector_10" d="M12.7656 33.7391L17.7068 36.0764L17.6754 34.6175L18.0676 31.1509L12.7656 33.7391Z" fill="#D7C1B3" stroke="#D7C1B3" stroke-linecap="round" stroke-linejoin="round"/>
</g>
<path id="Vector_11" d="M17.7849 25.2843L13.3613 23.9824L16.4829 22.5549L17.7849 25.2843Z" fill="#233447" stroke="#233447" stroke-linecap="round" stroke-linejoin="round"/>
<path id="Vector_12" d="M24.1992 25.2843L25.5012 22.5549L28.6384 23.9824L24.1992 25.2843Z" fill="#233447" stroke="#233447" stroke-linecap="round" stroke-linejoin="round"/>
<g id="Group_3">
<path id="Vector_13" d="M12.7643 33.7392L13.5172 27.3706L8.60742 27.5118L12.7643 33.7392Z" fill="#CD6116" stroke="#CD6116" stroke-linecap="round" stroke-linejoin="round"/>
<path id="Vector_14" d="M28.4824 27.3706L29.2354 33.7392L33.3922 27.5118L28.4824 27.3706Z" fill="#CD6116" stroke="#CD6116" stroke-linecap="round" stroke-linejoin="round"/>
<path id="Vector_15" d="M32.2161 20.3589L23.4004 20.751L24.2161 25.2844L25.518 22.555L28.6553 23.9824L32.2161 20.3589Z" fill="#CD6116" stroke="#CD6116" stroke-linecap="round" stroke-linejoin="round"/>
<path id="Vector_16" d="M13.3597 23.9824L16.4969 22.555L17.7832 25.2844L18.6146 20.751L9.7832 20.3589L13.3597 23.9824Z" fill="#CD6116" stroke="#CD6116" stroke-linecap="round" stroke-linejoin="round"/>
</g>
<g id="Group_4">
<path id="Vector_17" d="M9.78516 20.3589L13.4871 27.5746L13.3616 23.9824L9.78516 20.3589Z" fill="#E4751F" stroke="#E4751F" stroke-linecap="round" stroke-linejoin="round"/>
<path id="Vector_18" d="M28.6549 23.9824L28.498 27.5746L32.2157 20.3589L28.6549 23.9824Z" fill="#E4751F" stroke="#E4751F" stroke-linecap="round" stroke-linejoin="round"/>
<path id="Vector_19" d="M18.6165 20.751L17.7852 25.2843L18.8204 30.6333L19.0557 23.5902L18.6165 20.751Z" fill="#E4751F" stroke="#E4751F" stroke-linecap="round" stroke-linejoin="round"/>
<path id="Vector_20" d="M23.4001 20.751L22.9766 23.5745L23.1648 30.6333L24.2158 25.2843L23.4001 20.751Z" fill="#E4751F" stroke="#E4751F" stroke-linecap="round" stroke-linejoin="round"/>
</g>
<path id="Vector_21" d="M24.215 25.2844L23.1641 30.6334L23.917 31.1511L28.4974 27.5746L28.6543 23.9824L24.215 25.2844Z" fill="#F6851B" stroke="#F6851B" stroke-linecap="round" stroke-linejoin="round"/>
<path id="Vector_22" d="M13.3613 23.9824L13.4868 27.5746L18.0672 31.1511L18.8202 30.6334L17.7849 25.2844L13.3613 23.9824Z" fill="#F6851B" stroke="#F6851B" stroke-linecap="round" stroke-linejoin="round"/>
<path id="Vector_23" d="M24.295 36.0765L24.3421 34.6177L23.9499 34.2726H18.0362L17.6754 34.6177L17.7068 36.0765L12.7656 33.7393L14.4911 35.151L17.9892 37.5824H23.997L27.5107 35.151L29.2362 33.7393L24.295 36.0765Z" fill="#C0AD9E" stroke="#C0AD9E" stroke-linecap="round" stroke-linejoin="round"/>
<path id="Vector_24" d="M23.917 31.1509L23.164 30.6333H18.8189L18.066 31.1509L17.6738 34.6176L18.0346 34.2725H23.9483L24.3405 34.6176L23.917 31.1509Z" fill="#161616" stroke="#161616" stroke-linecap="round" stroke-linejoin="round"/>
<g id="Group_5">
<path id="Vector_25" d="M39.667 12.8451L41.0003 6.4451L39.0082 0.5L23.918 11.7L29.7219 16.6098L37.9258 19.0098L39.7454 16.8922L38.9611 16.3275L40.216 15.1824L39.2435 14.4294L40.4984 13.4725L39.667 12.8451Z" fill="#763D16" stroke="#763D16" stroke-linecap="round" stroke-linejoin="round"/>
<path id="Vector_26" d="M1 6.4451L2.33333 12.8451L1.48627 13.4725L2.74118 14.4294L1.78431 15.1824L3.03922 16.3275L2.2549 16.8922L4.05882 19.0098L12.2627 16.6098L18.0667 11.7L2.97647 0.5L1 6.4451Z" fill="#763D16" stroke="#763D16" stroke-linecap="round" stroke-linejoin="round"/>
</g>
<path id="Vector_27" d="M37.9255 19.0099L29.7216 16.6099L32.2157 20.3589L28.498 27.5746L33.3922 27.5118H40.6863L37.9255 19.0099Z" fill="#F6851B" stroke="#F6851B" stroke-linecap="round" stroke-linejoin="round"/>
<path id="Vector_28" d="M12.2634 16.6099L4.05949 19.0099L1.33008 27.5118H8.60851L13.4869 27.5746L9.78498 20.3589L12.2634 16.6099Z" fill="#F6851B" stroke="#F6851B" stroke-linecap="round" stroke-linejoin="round"/>
<path id="Vector_29" d="M23.3992 20.751L23.9168 11.7L26.3011 5.25293H15.7129L18.0658 11.7L18.6149 20.751L18.8031 23.6059L18.8188 30.6333H23.1639L23.1952 23.6059L23.3992 20.751Z" fill="#F6851B" stroke="#F6851B" stroke-linecap="round" stroke-linejoin="round"/>
</g>
</svg>
