<svg width="28" height="28" viewBox="0 0 28 28" fill="none" xmlns="http://www.w3.org/2000/svg">
<path d="M2.65498 16.5477C2.07047 15.7779 1.76172 14.8972 1.76172 13.9995C1.76172 13.1019 2.07047 12.2211 2.65498 11.4513C2.83472 11.2144 3.07523 11.0097 3.36105 10.8505C3.64688 10.6914 3.9717 10.5812 4.31463 10.5271L7.14423 10.0795C7.31298 10.0531 7.46518 9.98184 7.57544 9.87753L11.0318 6.5992C13.0073 4.72436 13.9968 3.78826 14.8776 4.04044C15.7617 4.29262 15.7617 5.51259 15.7617 7.95252V20.0492C15.7617 22.4878 15.7617 23.7064 14.8792 23.9599C13.9984 24.2108 13.009 23.2747 11.0335 21.4012L7.5721 18.1215C7.46226 18.0175 7.31071 17.9462 7.14256 17.9195L4.31296 17.4719C3.97002 17.4178 3.64521 17.3077 3.35938 17.1485C3.07356 16.9893 2.83472 16.7847 2.65498 16.5477Z" stroke="#FDFAFF" stroke-width="2"/>
<path d="M20.2383 9.63478C21.1043 10.7938 21.5929 12.3639 21.5976 14.003C21.6023 15.6421 21.1227 17.2172 20.2633 18.3851M24.0632 7C25.4488 8.85424 26.2306 11.3663 26.2382 13.9887C26.2459 16.6112 25.4787 19.1313 24.104 21" stroke="#FDFAFF" stroke-width="2" stroke-linecap="round"/>
</svg>
