<svg width="28" height="28" viewBox="0 0 28 28" fill="none" xmlns="http://www.w3.org/2000/svg">
<path d="M2.87568 16.5477C2.29117 15.7779 1.98242 14.8972 1.98242 13.9995C1.98242 13.1019 2.29117 12.2211 2.87568 11.4513C3.05542 11.2144 3.29593 11.0097 3.58176 10.8505C3.86758 10.6914 4.1924 10.5812 4.53533 10.5271L7.36493 10.0795C7.53368 10.0531 7.68588 9.98184 7.79614 9.87753L11.2525 6.5992C13.228 4.72436 14.2175 3.78826 15.0983 4.04044C15.9824 4.29262 15.9824 5.51259 15.9824 7.95252V20.0492C15.9824 22.4878 15.9824 23.7064 15.0999 23.9599C14.2191 24.2108 13.2297 23.2747 11.2542 21.4012L7.7928 18.1215C7.68296 18.0175 7.53141 17.9462 7.36326 17.9195L4.53366 17.4719C4.19073 17.4178 3.86591 17.3077 3.58009 17.1485C3.29426 16.9893 3.05542 16.7847 2.87568 16.5477Z" stroke="#868686" stroke-width="2"/>
<path d="M20.0176 18L26.0176 10M26.0176 18L20.0176 10" stroke="#868686" stroke-width="2" stroke-linecap="round"/>
</svg>
