<svg width="40" height="36" viewBox="0 0 40 36" fill="none" xmlns="http://www.w3.org/2000/svg">
<path d="M1.5313 22.416C0.529289 21.0818 0 19.5551 0 17.9992C0 16.4433 0.529289 14.9166 1.5313 13.5823C1.83943 13.1715 2.25173 12.8168 2.74172 12.5409C3.2317 12.265 3.78853 12.0741 4.37642 11.9803L9.22716 11.2045C9.51645 11.1588 9.77736 11.0352 9.96638 10.8544L15.8916 5.17194C19.2782 1.92222 20.9744 0.299645 22.4843 0.736755C24 1.17387 24 3.28847 24 7.51769V28.4852C24 32.7122 24 34.8245 22.4872 35.2639C20.9772 35.6987 19.2811 34.0761 15.8944 30.8287L9.96065 25.144C9.77236 24.9636 9.51255 24.8401 9.2243 24.7938L4.37356 24.018C3.78567 23.9243 3.22884 23.7333 2.73885 23.4574C2.24887 23.1815 1.83943 22.8268 1.5313 22.416Z" fill="#171717"/>
<path d="M27.9727 13.0112C29.3198 14.3357 30.0798 16.1302 30.0871 18.0035C30.0944 19.8767 29.3484 21.6769 28.0116 23.0115M33.9225 10C36.0779 12.1191 37.294 14.9901 37.3059 17.9871C37.3178 20.9842 36.1245 23.8644 33.986 26" stroke="#171717" stroke-width="4" stroke-linecap="round"/>
</svg>
