<svg width="64" height="64" viewBox="0 0 64 64" fill="none" xmlns="http://www.w3.org/2000/svg">
<g id="X">
<path d="M0 24C0 10.7452 10.7452 0 24 0H40C53.2548 0 64 10.7452 64 24V40C64 53.2548 53.2548 64 40 64H24C10.7452 64 0 53.2548 0 40V24Z" fill="black"/>
<g id="Group">
<path id="Vector" d="M32 64C49.6731 64 64 49.6731 64 32C64 14.3269 49.6731 0 32 0C14.3269 0 0 14.3269 0 32C0 49.6731 14.3269 64 32 64Z" fill="black"/>
<g id="layer1">
<path id="path1009" d="M12.2878 13.46L27.5834 33.9113L12.1914 50.5392H15.6558L29.1318 35.9809L40.0196 50.5392H51.8083L35.6517 28.9377L49.9787 13.46H46.5143L34.104 26.8675L24.0765 13.46H12.2878ZM17.3824 16.0116H22.798L46.7131 47.9876H41.2974L17.3824 16.0116Z" fill="white"/>
</g>
</g>
</g>
</svg>
