<svg width="42" height="48" viewBox="0 0 42 48" fill="none" xmlns="http://www.w3.org/2000/svg">
<path d="M10.1954 10C9.20956 10 8.26406 10.4298 7.56694 11.1949C6.86982 11.96 6.47818 12.9977 6.47818 14.0797C6.47818 15.1617 6.86982 16.1993 7.56694 16.9644C8.26406 17.7295 9.20956 18.1593 10.1954 18.1593C11.1813 18.1593 12.1268 17.7295 12.8239 16.9644C13.5211 16.1993 13.9127 15.1617 13.9127 14.0797C13.9127 12.9977 13.5211 11.96 12.8239 11.1949C12.1268 10.4298 11.1813 10 10.1954 10ZM11.4345 23.5989C11.4345 22.6062 11.6749 21.6787 12.0987 20.8791H6.47818C5.82092 20.8791 5.19059 21.1656 4.72584 21.6757C4.26109 22.1858 4 22.8775 4 23.5989V30.3983C3.99966 31.5115 4.24838 32.6078 4.7243 33.5909C5.20023 34.5739 5.88881 35.4137 6.72957 36.0365C7.57033 36.6593 8.53755 37.0459 9.5463 37.1626C10.555 37.2792 11.5745 37.1222 12.515 36.7055C11.8017 35.1731 11.4314 33.4762 11.4345 31.7555V23.5989Z" fill="#FDB022"/>
<path d="M21.0013 8C20.3818 8 19.7683 8.13787 19.196 8.40573C18.6236 8.6736 18.1036 9.06621 17.6655 9.56116C17.2275 10.0561 16.88 10.6437 16.6429 11.2904C16.4058 11.9371 16.2838 12.6302 16.2838 13.3301C16.2838 14.0301 16.4058 14.7232 16.6429 15.3699C16.88 16.0166 17.2275 16.6041 17.6655 17.0991C18.1036 17.594 18.6236 17.9867 19.196 18.2545C19.7683 18.5224 20.3818 18.6603 21.0013 18.6603C22.2525 18.6603 23.4524 18.0987 24.3371 17.0991C25.2218 16.0995 25.7188 14.7438 25.7188 13.3301C25.7188 11.9165 25.2218 10.5608 24.3371 9.56116C23.4524 8.56156 22.2525 8 21.0013 8ZM13.918 23.9824C13.9223 23.2781 14.173 22.6043 14.6153 22.1081C15.0577 21.6118 15.6557 21.3333 16.2791 21.3333H25.7235C26.3497 21.3333 26.9503 21.6144 27.3931 22.1147C27.8359 22.615 28.0846 23.2935 28.0846 24.0011V32.0042C28.0845 32.8438 27.9682 33.6782 27.7399 34.4772C27.2171 36.2878 26.1401 37.8285 24.7024 38.8227C23.2646 39.8168 21.5603 40.1993 19.8954 39.9015C18.2305 39.6036 16.7142 38.6449 15.6186 37.1975C14.5231 35.75 13.9201 33.9088 13.918 32.0042V24.0011V23.9824Z" fill="url(#paint0_linear_5250_3738)"/>
<path d="M31.8032 10C30.8173 10 29.8718 10.4298 29.1747 11.1949C28.4776 11.96 28.0859 12.9977 28.0859 14.0797C28.0859 15.1617 28.4776 16.1993 29.1747 16.9644C29.8718 17.7295 30.8173 18.1593 31.8032 18.1593C32.7891 18.1593 33.7346 17.7295 34.4317 16.9644C35.1288 16.1993 35.5205 15.1617 35.5205 14.0797C35.5205 12.9977 35.1288 11.96 34.4317 11.1949C33.7346 10.4298 32.7891 10 31.8032 10ZM30.5641 23.5989V31.7582C30.5641 33.5396 30.175 35.2205 29.4836 36.7055C30.4242 37.1222 31.4436 37.2792 32.4523 37.1626C33.4611 37.0459 34.4283 36.6593 35.2691 36.0365C36.1098 35.4137 36.7984 34.5739 37.2743 33.5909C37.7503 32.6078 37.999 31.5115 37.9986 30.3983V23.5989C37.9986 22.8775 37.7376 22.1858 37.2728 21.6757C36.8081 21.1656 36.1777 20.8791 35.5205 20.8791H29.9C30.3213 21.6787 30.5641 22.6062 30.5641 23.5989Z" fill="#A7F67B"/>
<defs>
<linearGradient id="paint0_linear_5250_3738" x1="21.0013" y1="8" x2="21.0013" y2="40" gradientUnits="userSpaceOnUse">
<stop stop-color="#5758FE"/>
<stop offset="1" stop-color="#882FE8"/>
</linearGradient>
</defs>
</svg>
